<svg width="132" height="132" viewBox="0 0 132 132" fill="none" xmlns="http://www.w3.org/2000/svg">
<g clip-path="url(#clip0_192_672)">
<path d="M65.9362 0.217285C29.6311 0.217285 0.198578 29.649 0.198578 65.9541C0.198578 102.261 29.6311 131.69 65.9362 131.69C102.245 131.69 131.675 102.261 131.675 65.9541C131.675 29.6514 102.246 0.217285 65.9362 0.217285ZM96.0831 95.0287C94.9056 96.9598 92.3779 97.5721 90.4468 96.3867C75.0123 86.959 55.5821 84.8238 32.6996 90.0518C30.4946 90.5542 28.2966 89.1726 27.7942 86.9668C27.2895 84.761 28.6655 82.563 30.8761 82.0606C55.9173 76.3396 77.3971 78.8029 94.725 89.3924C96.6561 90.5778 97.2684 93.0976 96.0831 95.0287ZM104.129 77.1293C102.646 79.5408 99.4899 80.3022 97.08 78.8186C79.4098 67.9574 52.4744 64.812 31.5739 71.1563C28.8634 71.975 26.0005 70.4474 25.1778 67.7416C24.3614 65.031 25.8898 62.1736 28.5957 61.3494C52.4697 54.1054 82.1494 57.6144 102.441 70.084C104.851 71.5676 105.613 74.7225 104.129 77.1293ZM104.82 58.4904C83.6331 45.9062 48.6774 44.7491 28.4489 50.8886C25.2006 51.8737 21.7655 50.04 20.7811 46.7917C19.7967 43.5418 21.6289 40.109 24.8795 39.1215C48.1004 32.0723 86.7024 33.4342 111.095 47.915C114.023 49.649 114.981 53.4225 113.246 56.3403C111.519 59.2621 107.732 60.2253 104.82 58.4904Z" fill="#57B65F"/>
</g>
<defs>
<clipPath id="clip0_192_672">
<rect width="132" height="132" fill="white"/>
</clipPath>
</defs>
</svg>
